<mxfile host="app.diagrams.net" modified="2022-07-11T06:40:00.818Z" agent="5.0 (Windows NT 10.0; Win64; x64) AppleWebKit/537.36 (KHTML, like Gecko) Chrome/103.0.5060.114 Safari/537.36" etag="MOONC1fKkBDhrOPhYXnS" version="20.0.4" type="github">
  <diagram id="-AXex7JFn0oujDa0BoU2" name="Page-1">
    <mxGraphModel dx="2607" dy="1460" grid="1" gridSize="10" guides="1" tooltips="1" connect="1" arrows="1" fold="1" page="1" pageScale="1" pageWidth="2336" pageHeight="1654" background="#09555B" math="0" shadow="0">
      <root>
        <mxCell id="0" />
        <mxCell id="1" parent="0" />
        <mxCell id="dm8Ctu_rhWURjPSK8A-L-15" style="edgeStyle=orthogonalEdgeStyle;curved=0;rounded=1;sketch=0;orthogonalLoop=1;jettySize=auto;html=1;entryX=0.5;entryY=0;entryDx=0;entryDy=0;fontSize=35;fontColor=#000000;strokeColor=#EEEEEE;strokeWidth=3;" edge="1" parent="1" source="dm8Ctu_rhWURjPSK8A-L-1" target="dm8Ctu_rhWURjPSK8A-L-4">
          <mxGeometry relative="1" as="geometry" />
        </mxCell>
        <mxCell id="dm8Ctu_rhWURjPSK8A-L-1" value="" style="rounded=1;whiteSpace=wrap;html=1;sketch=0;fontColor=#182E3E;strokeColor=#BAC8D3;fillColor=#B1DDF0;" vertex="1" parent="1">
          <mxGeometry x="1997.5" y="635" width="165" height="70" as="geometry" />
        </mxCell>
        <mxCell id="dm8Ctu_rhWURjPSK8A-L-14" style="edgeStyle=orthogonalEdgeStyle;curved=0;rounded=1;sketch=0;orthogonalLoop=1;jettySize=auto;html=1;fontSize=35;fontColor=#000000;strokeColor=#EEEEEE;strokeWidth=3;" edge="1" parent="1" source="dm8Ctu_rhWURjPSK8A-L-2" target="dm8Ctu_rhWURjPSK8A-L-1">
          <mxGeometry relative="1" as="geometry" />
        </mxCell>
        <mxCell id="dm8Ctu_rhWURjPSK8A-L-2" value="COIL" style="text;html=1;resizable=0;autosize=1;align=center;verticalAlign=middle;points=[];fillColor=none;strokeColor=none;rounded=0;sketch=0;fontColor=#FFFFFF;fontStyle=1;fontSize=28;" vertex="1" parent="1">
          <mxGeometry x="2035" y="449" width="90" height="50" as="geometry" />
        </mxCell>
        <mxCell id="dm8Ctu_rhWURjPSK8A-L-3" value="&lt;b&gt;&lt;i&gt;BLANKING&lt;/i&gt;&lt;/b&gt;" style="text;html=1;resizable=0;autosize=1;align=center;verticalAlign=middle;points=[];fillColor=none;strokeColor=none;rounded=0;sketch=0;fontSize=28;fontColor=#000000;" vertex="1" parent="1">
          <mxGeometry x="1995" y="645" width="170" height="50" as="geometry" />
        </mxCell>
        <mxCell id="dm8Ctu_rhWURjPSK8A-L-16" style="edgeStyle=orthogonalEdgeStyle;curved=0;rounded=1;sketch=0;orthogonalLoop=1;jettySize=auto;html=1;entryX=0.5;entryY=0;entryDx=0;entryDy=0;fontSize=35;fontColor=#000000;strokeColor=#EEEEEE;strokeWidth=3;" edge="1" parent="1" source="dm8Ctu_rhWURjPSK8A-L-4" target="dm8Ctu_rhWURjPSK8A-L-6">
          <mxGeometry relative="1" as="geometry" />
        </mxCell>
        <mxCell id="dm8Ctu_rhWURjPSK8A-L-4" value="" style="rounded=1;whiteSpace=wrap;html=1;sketch=0;fontColor=#182E3E;strokeColor=#BAC8D3;fillColor=#B1DDF0;" vertex="1" parent="1">
          <mxGeometry x="2000" y="785" width="160" height="70" as="geometry" />
        </mxCell>
        <mxCell id="dm8Ctu_rhWURjPSK8A-L-5" value="&lt;b&gt;&lt;i&gt;PRESS&lt;/i&gt;&lt;/b&gt;" style="text;html=1;resizable=0;autosize=1;align=center;verticalAlign=middle;points=[];fillColor=none;strokeColor=none;rounded=0;sketch=0;fontSize=28;fontColor=#000000;" vertex="1" parent="1">
          <mxGeometry x="2020" y="795" width="120" height="50" as="geometry" />
        </mxCell>
        <mxCell id="dm8Ctu_rhWURjPSK8A-L-18" style="edgeStyle=orthogonalEdgeStyle;curved=0;rounded=1;sketch=0;orthogonalLoop=1;jettySize=auto;html=1;fontSize=35;fontColor=#000000;strokeColor=#EEEEEE;strokeWidth=3;" edge="1" parent="1" source="dm8Ctu_rhWURjPSK8A-L-6">
          <mxGeometry relative="1" as="geometry">
            <mxPoint x="1820" y="960" as="targetPoint" />
          </mxGeometry>
        </mxCell>
        <mxCell id="dm8Ctu_rhWURjPSK8A-L-6" value="" style="rounded=1;whiteSpace=wrap;html=1;sketch=0;fontColor=#182E3E;strokeColor=#BAC8D3;fillColor=#B1DDF0;" vertex="1" parent="1">
          <mxGeometry x="2000" y="925" width="160" height="70" as="geometry" />
        </mxCell>
        <mxCell id="dm8Ctu_rhWURjPSK8A-L-7" value="&lt;b&gt;&lt;i&gt;STOCK&lt;/i&gt;&lt;/b&gt;" style="text;html=1;resizable=0;autosize=1;align=center;verticalAlign=middle;points=[];fillColor=none;strokeColor=none;rounded=0;sketch=0;fontSize=28;fontColor=#000000;" vertex="1" parent="1">
          <mxGeometry x="2020" y="935" width="120" height="50" as="geometry" />
        </mxCell>
        <mxCell id="dm8Ctu_rhWURjPSK8A-L-17" value="" style="rounded=0;whiteSpace=wrap;html=1;sketch=0;fontSize=35;fillColor=none;fontColor=#ffffff;strokeColor=#FFFFFF;strokeWidth=5;" vertex="1" parent="1">
          <mxGeometry x="1155" y="800" width="480" height="320" as="geometry" />
        </mxCell>
        <mxCell id="dm8Ctu_rhWURjPSK8A-L-31" value="" style="rounded=1;whiteSpace=wrap;html=1;sketch=0;fontSize=35;strokeColor=#10739e;strokeWidth=1;fillColor=#b1ddf0;rotation=90;" vertex="1" parent="1">
          <mxGeometry x="1576" y="1080" width="200" height="60" as="geometry" />
        </mxCell>
        <mxCell id="dm8Ctu_rhWURjPSK8A-L-40" style="edgeStyle=orthogonalEdgeStyle;curved=0;rounded=1;sketch=0;orthogonalLoop=1;jettySize=auto;html=1;entryX=1;entryY=0.5;entryDx=0;entryDy=0;fontFamily=Tahoma;fontSize=20;fontColor=#000000;strokeWidth=3;exitX=1;exitY=0.5;exitDx=0;exitDy=0;strokeColor=#FFFFFF;" edge="1" parent="1" source="dm8Ctu_rhWURjPSK8A-L-31" target="dm8Ctu_rhWURjPSK8A-L-32">
          <mxGeometry relative="1" as="geometry" />
        </mxCell>
        <mxCell id="dm8Ctu_rhWURjPSK8A-L-32" value="" style="rounded=1;whiteSpace=wrap;html=1;sketch=0;fontSize=35;strokeColor=#10739e;strokeWidth=1;fillColor=#b1ddf0;rotation=90;" vertex="1" parent="1">
          <mxGeometry x="1646" y="1081" width="200" height="60" as="geometry" />
        </mxCell>
        <mxCell id="dm8Ctu_rhWURjPSK8A-L-33" value="BMR" style="text;html=1;resizable=0;autosize=1;align=center;verticalAlign=middle;points=[];fillColor=none;strokeColor=none;rounded=0;sketch=0;fontSize=20;fontColor=#000000;horizontal=0;fontStyle=1;fontFamily=Tahoma;" vertex="1" parent="1">
          <mxGeometry x="1651" y="1042" width="50" height="60" as="geometry" />
        </mxCell>
        <mxCell id="dm8Ctu_rhWURjPSK8A-L-34" value="&lt;font face=&quot;Tahoma&quot;&gt;FLOOR MAIN&lt;/font&gt;" style="text;html=1;resizable=0;autosize=1;align=center;verticalAlign=middle;points=[];fillColor=none;strokeColor=none;rounded=0;sketch=0;fontSize=20;fontColor=#000000;horizontal=0;fontStyle=1" vertex="1" parent="1">
          <mxGeometry x="1721" y="1066" width="50" height="140" as="geometry" />
        </mxCell>
        <mxCell id="dm8Ctu_rhWURjPSK8A-L-38" value="" style="endArrow=classic;html=1;rounded=1;sketch=0;fontFamily=Tahoma;fontSize=20;fontColor=#000000;strokeColor=#000000;strokeWidth=3;curved=0;" edge="1" parent="1">
          <mxGeometry width="50" height="50" relative="1" as="geometry">
            <mxPoint x="1675.63" y="1110" as="sourcePoint" />
            <mxPoint x="1675.63" y="1190" as="targetPoint" />
          </mxGeometry>
        </mxCell>
        <mxCell id="dm8Ctu_rhWURjPSK8A-L-41" value="" style="endArrow=classic;html=1;rounded=1;sketch=0;fontFamily=Tahoma;fontSize=20;fontColor=#000000;strokeColor=#000000;strokeWidth=3;curved=0;exitX=0.516;exitY=1.021;exitDx=0;exitDy=0;exitPerimeter=0;" edge="1" parent="1">
          <mxGeometry width="50" height="50" relative="1" as="geometry">
            <mxPoint x="1745.6" y="1064.06" as="sourcePoint" />
            <mxPoint x="1746.3999999999996" y="1017" as="targetPoint" />
            <Array as="points">
              <mxPoint x="1745.6" y="1060.06" />
            </Array>
          </mxGeometry>
        </mxCell>
        <mxCell id="dm8Ctu_rhWURjPSK8A-L-45" style="edgeStyle=orthogonalEdgeStyle;curved=0;rounded=1;sketch=0;orthogonalLoop=1;jettySize=auto;html=1;entryX=0;entryY=0.5;entryDx=0;entryDy=0;fontFamily=Tahoma;fontSize=20;fontColor=#000000;strokeColor=#FFFFFF;strokeWidth=3;exitX=0;exitY=0.5;exitDx=0;exitDy=0;" edge="1" parent="1" source="dm8Ctu_rhWURjPSK8A-L-42" target="dm8Ctu_rhWURjPSK8A-L-31">
          <mxGeometry relative="1" as="geometry" />
        </mxCell>
        <mxCell id="dm8Ctu_rhWURjPSK8A-L-42" value="" style="rounded=0;whiteSpace=wrap;html=1;sketch=0;fontFamily=Tahoma;fontSize=20;strokeColor=#10739e;strokeWidth=1;fillColor=#b1ddf0;rotation=90;" vertex="1" parent="1">
          <mxGeometry x="1470" y="1082" width="200" height="60" as="geometry" />
        </mxCell>
        <mxCell id="dm8Ctu_rhWURjPSK8A-L-43" value="METAL LINE" style="text;html=1;resizable=0;autosize=1;align=center;verticalAlign=middle;points=[];fillColor=none;strokeColor=none;rounded=0;sketch=0;fontSize=20;fontColor=#000000;horizontal=0;fontStyle=1;fontFamily=Tahoma;" vertex="1" parent="1">
          <mxGeometry x="1545" y="1066" width="50" height="140" as="geometry" />
        </mxCell>
        <mxCell id="dm8Ctu_rhWURjPSK8A-L-44" value="" style="endArrow=classic;html=1;rounded=1;sketch=0;fontFamily=Tahoma;fontSize=20;fontColor=#000000;strokeColor=#000000;strokeWidth=3;curved=0;exitX=0.516;exitY=1.021;exitDx=0;exitDy=0;exitPerimeter=0;" edge="1" parent="1">
          <mxGeometry width="50" height="50" relative="1" as="geometry">
            <mxPoint x="1569.6" y="1066" as="sourcePoint" />
            <mxPoint x="1570.3999999999996" y="1018.94" as="targetPoint" />
            <Array as="points">
              <mxPoint x="1569.6" y="1062" />
            </Array>
          </mxGeometry>
        </mxCell>
        <mxCell id="dm8Ctu_rhWURjPSK8A-L-47" value="LINE 3" style="text;html=1;resizable=0;autosize=1;align=center;verticalAlign=middle;points=[];fillColor=none;strokeColor=none;rounded=0;sketch=0;fontFamily=Tahoma;fontSize=34;fontColor=#FFFFFF;fontStyle=1" vertex="1" parent="1">
          <mxGeometry x="1591" y="1255" width="140" height="50" as="geometry" />
        </mxCell>
        <mxCell id="dm8Ctu_rhWURjPSK8A-L-48" value="" style="rounded=0;whiteSpace=wrap;html=1;sketch=0;fontFamily=Tahoma;fontSize=34;fontColor=#FFFFFF;strokeColor=#FFFFFF;strokeWidth=5;fillColor=none;" vertex="1" parent="1">
          <mxGeometry x="1200" y="830" width="220" height="80" as="geometry" />
        </mxCell>
        <mxCell id="dm8Ctu_rhWURjPSK8A-L-49" value="" style="rounded=0;whiteSpace=wrap;html=1;sketch=0;fontFamily=Tahoma;fontSize=34;fontColor=#FFFFFF;strokeColor=#FFFFFF;strokeWidth=5;fillColor=none;" vertex="1" parent="1">
          <mxGeometry x="1200" y="1010" width="220" height="80" as="geometry" />
        </mxCell>
        <mxCell id="dm8Ctu_rhWURjPSK8A-L-50" value="LINE 1" style="text;html=1;resizable=0;autosize=1;align=center;verticalAlign=middle;points=[];fillColor=none;strokeColor=none;rounded=0;sketch=0;fontFamily=Tahoma;fontSize=34;fontColor=#FFFFFF;fontStyle=1" vertex="1" parent="1">
          <mxGeometry x="1240" y="845" width="140" height="50" as="geometry" />
        </mxCell>
        <mxCell id="dm8Ctu_rhWURjPSK8A-L-51" value="LINE 2" style="text;html=1;resizable=0;autosize=1;align=center;verticalAlign=middle;points=[];fillColor=none;strokeColor=none;rounded=0;sketch=0;fontFamily=Tahoma;fontSize=34;fontColor=#FFFFFF;fontStyle=1" vertex="1" parent="1">
          <mxGeometry x="1240" y="1025" width="140" height="50" as="geometry" />
        </mxCell>
        <mxCell id="dm8Ctu_rhWURjPSK8A-L-52" value="" style="rounded=0;whiteSpace=wrap;html=1;sketch=0;fontSize=35;fillColor=none;fontColor=#ffffff;strokeColor=#FFFFFF;strokeWidth=5;" vertex="1" parent="1">
          <mxGeometry x="1100" y="750" width="720" height="580" as="geometry" />
        </mxCell>
        <mxCell id="dm8Ctu_rhWURjPSK8A-L-53" value="BODY SHOP" style="text;html=1;resizable=0;autosize=1;align=center;verticalAlign=middle;points=[];fillColor=none;strokeColor=none;rounded=0;sketch=0;fontFamily=Tahoma;fontSize=34;fontColor=#FFFFFF;fontStyle=1" vertex="1" parent="1">
          <mxGeometry x="1345" y="690" width="230" height="50" as="geometry" />
        </mxCell>
        <mxCell id="dm8Ctu_rhWURjPSK8A-L-54" value="" style="rounded=0;whiteSpace=wrap;html=1;sketch=0;fontSize=35;fillColor=none;fontColor=#ffffff;strokeColor=#FFFFFF;strokeWidth=5;" vertex="1" parent="1">
          <mxGeometry x="1930" y="600" width="290" height="450" as="geometry" />
        </mxCell>
        <mxCell id="dm8Ctu_rhWURjPSK8A-L-55" value="STAMPING SHOP" style="text;html=1;resizable=0;autosize=1;align=center;verticalAlign=middle;points=[];fillColor=none;strokeColor=none;rounded=0;sketch=0;fontFamily=Tahoma;fontSize=34;fontColor=#FFFFFF;fontStyle=1;horizontal=0;" vertex="1" parent="1">
          <mxGeometry x="1870" y="615" width="60" height="310" as="geometry" />
        </mxCell>
      </root>
    </mxGraphModel>
  </diagram>
</mxfile>
